<svg width="140" height="140" viewBox="0 0 140 140" fill="none" xmlns="http://www.w3.org/2000/svg">
<g clip-path="url(#clip0_109:50)">
<path d="M86.0997 65.275C85.2874 65.2717 84.4834 65.4381 83.7391 65.7635C82.9948 66.0889 82.3267 66.5662 81.7776 67.1648C81.2284 67.7633 80.8104 68.47 80.5501 69.2395C80.2899 70.009 80.1932 70.8243 80.2664 71.6333H92.283C92.3606 70.794 92.2554 69.9478 91.9746 69.153C91.6938 68.3582 91.2441 67.6337 90.6564 67.0294C90.0687 66.4251 89.3571 65.9554 88.5704 65.6525C87.7838 65.3496 86.9409 65.2208 86.0997 65.275Z" fill="white"/>
<path d="M55.3571 71.7499H48.1821V83.0666H54.0155C59.8488 83.0666 62.4155 81.1416 62.4155 77.2333C62.4155 73.3249 59.7321 71.7499 55.3571 71.7499Z" fill="white"/>
<path d="M60.4321 61.3666C60.4321 58.2749 58.3905 56.4083 54.8905 56.4083H48.1821V66.5583H53.1405C58.3321 66.5583 60.4321 64.6916 60.4321 61.3666Z" fill="white"/>
<path d="M69.9999 11.6667C58.4626 11.6667 47.1845 15.0878 37.5916 21.4976C27.9987 27.9073 20.522 37.0178 16.1069 47.6768C11.6918 58.3358 10.5366 70.0647 12.7874 81.3803C15.0382 92.6958 20.5939 103.09 28.752 111.248C36.91 119.406 47.304 124.962 58.6196 127.212C69.9352 129.463 81.664 128.308 92.3231 123.893C102.982 119.478 112.093 112.001 118.502 102.408C124.912 92.8154 128.333 81.5372 128.333 70C128.333 62.3396 126.824 54.7541 123.893 47.6768C120.961 40.5995 116.665 34.1688 111.248 28.7521C105.831 23.3353 99.4004 19.0385 92.3231 16.107C85.2457 13.1755 77.6603 11.6667 69.9999 11.6667ZM56.5832 88.6667H40.8332V50.75H56.5832C63.4082 50.75 67.8999 54.3083 67.8999 60.0833C67.9804 62.0235 67.3669 63.9288 66.1696 65.4575C64.9723 66.9862 63.2694 68.0383 61.3665 68.425C62.5725 68.4529 63.76 68.7267 64.8566 69.2294C65.9531 69.7322 66.9355 70.4534 67.7436 71.3489C68.5518 72.2445 69.1687 73.2955 69.5567 74.4377C69.9446 75.5798 70.0954 76.7892 69.9999 77.9917C69.9999 84.7583 64.1665 88.6667 56.5832 88.6667ZM77.2915 53.6667H94.7915V56.5833H77.2915V53.6667ZM99.1665 76.125H79.9165V76.9417C79.8162 77.8281 79.9071 78.7257 80.183 79.574C80.4589 80.4224 80.9134 81.2017 81.5159 81.8595C82.1185 82.5173 82.855 83.0384 83.6759 83.3875C84.4969 83.7366 85.3831 83.9057 86.2749 83.8833C87.527 84.0779 88.8072 83.813 89.8793 83.1376C90.9514 82.4621 91.7431 81.4217 92.1082 80.2083H99.1665C98.538 83.0085 96.8995 85.4787 94.5642 87.1468C92.229 88.8148 89.3608 89.5636 86.5082 89.25C84.685 89.4341 82.8436 89.2165 81.1136 88.6124C79.3836 88.0083 77.807 87.0325 76.4947 85.7535C75.1823 84.4746 74.1662 82.9236 73.5178 81.2097C72.8694 79.4958 72.6044 77.6606 72.7415 75.8333V73.2667C72.6176 71.4961 72.8782 69.7196 73.5052 68.0592C74.1323 66.3987 75.111 64.8935 76.3744 63.6468C77.6377 62.4 79.1557 61.4413 80.8244 60.8363C82.493 60.2313 84.2727 59.9943 86.0415 60.1417C87.8045 60.0286 89.5712 60.2947 91.2227 60.9218C92.8742 61.5489 94.3722 62.5226 95.6158 63.7772C96.8595 65.0319 97.8198 66.5384 98.4323 68.1954C99.0448 69.8525 99.2951 71.6214 99.1665 73.3833V76.125Z" fill="white"/>
</g>
<defs>
<clipPath id="clip0_109:50">
<rect width="140" height="140" fill="white"/>
</clipPath>
</defs>
</svg>
