<svg width="116" height="116" viewBox="0 0 116 116" fill="none" xmlns="http://www.w3.org/2000/svg">
<path d="M116 0H0V116H116V0Z" fill="white" fill-opacity="0.01"/>
<path fill-rule="evenodd" clip-rule="evenodd" d="M58 9.66667C31.3062 9.66667 9.66667 31.3062 9.66667 58C9.66667 84.6938 31.3062 106.333 58 106.333C84.6938 106.333 106.333 84.6938 106.333 58C106.333 31.3062 84.6938 9.66667 58 9.66667ZM0 58C0 25.9676 25.9676 0 58 0C90.0324 0 116 25.9676 116 58C116 90.0324 90.0324 116 58 116C25.9676 116 0 90.0324 0 58Z" fill="white"/>
<path fill-rule="evenodd" clip-rule="evenodd" d="M46.3595 109.889C45.8921 109.286 45.8921 103.91 46.3595 93.7618C41.3527 93.9346 38.1892 93.5871 36.8693 92.7192C34.8895 91.4174 32.9074 87.4026 31.1488 84.5731C29.3902 81.7437 25.4868 81.2964 23.9106 80.6639C22.3344 80.0312 21.9387 77.4529 28.2538 79.4029C34.5691 81.3529 34.877 86.6631 36.8693 87.9048C38.8616 89.1464 43.6243 88.6032 45.7834 87.6085C47.9422 86.6138 47.7834 82.9102 48.1684 81.4431C48.6551 80.0735 46.9395 79.7698 46.9018 79.7586C44.7942 79.7586 33.722 77.3507 30.6807 66.6287C27.6395 55.9069 31.5572 48.8988 33.6471 45.8862C35.0403 43.8777 34.9171 39.5973 33.2774 33.0445C39.2311 32.2837 43.8254 34.1576 47.0608 38.6666C47.064 38.6925 51.3023 36.1463 58.0006 36.1463C64.6991 36.1463 67.0754 38.2203 68.9094 38.6666C70.7432 39.113 72.2101 30.7738 83.5365 33.0445C81.1718 37.6922 79.1914 43.4999 80.703 45.8862C82.2144 48.2724 88.1466 55.8602 84.5027 66.6287C82.0732 73.8078 77.2979 78.1844 70.1762 79.7586C69.3594 80.0192 68.9512 80.4397 68.9512 81.0197C68.9512 81.8899 70.0552 81.9849 71.6458 86.0613C72.706 88.7789 72.7826 96.5407 71.8754 109.347C69.5774 109.932 67.7895 110.324 66.5118 110.525C64.2465 110.881 61.7868 111.081 59.3699 111.158C56.9532 111.235 56.1139 111.226 52.7729 110.915C50.5454 110.708 48.4076 110.366 46.3595 109.889Z" fill="white"/>
</svg>
