<svg width="105" height="105" viewBox="0 0 105 105" fill="none" xmlns="http://www.w3.org/2000/svg">
<g clip-path="url(#clip0_126:3)">
<path fill-rule="evenodd" clip-rule="evenodd" d="M80.4298 99.6581C81.8385 100.656 83.6542 100.905 85.2729 100.292C86.8917 99.6756 88.0817 98.2931 88.4404 96.6175C92.2423 78.75 101.465 33.5256 104.925 17.2725C105.188 16.0475 104.75 14.7744 103.788 13.9562C102.825 13.1381 101.491 12.9019 100.301 13.3437C81.9567 20.1337 25.4623 41.3306 2.37104 49.875C0.905412 50.4175 -0.0483375 51.8262 -0.000212515 53.3706C0.0522875 54.9194 1.09354 56.2625 2.59416 56.7131C12.9498 59.8106 26.5429 64.12 26.5429 64.12C26.5429 64.12 32.8954 83.3044 36.2073 93.0606C36.6229 94.2856 37.581 95.2481 38.8454 95.5806C40.1054 95.9087 41.4529 95.5631 42.3935 94.675C47.7135 89.6525 55.9385 81.8869 55.9385 81.8869C55.9385 81.8869 71.566 93.345 80.4298 99.6581V99.6581ZM32.261 61.6962L39.6067 85.925L41.2385 70.5819C41.2385 70.5819 69.6192 44.9837 85.7979 30.3931C86.2704 29.9644 86.336 29.2469 85.9423 28.7437C85.5529 28.2406 84.8354 28.1225 84.2973 28.4637C65.546 40.4381 32.261 61.6962 32.261 61.6962Z" fill="white"/>
</g>
<defs>
<clipPath id="clip0_126:3">
<rect width="105" height="105" fill="white"/>
</clipPath>
</defs>
</svg>
