<svg width="124" height="124" viewBox="0 0 124 124" fill="none" xmlns="http://www.w3.org/2000/svg">
<path d="M95.8985 67.983C90.2048 67.983 84.8677 65.5702 80.0162 61.6435L81.1942 56.0842L81.2355 55.8672C82.305 49.9617 85.622 40.0572 95.9037 40.0572C103.612 40.0572 109.869 46.3192 109.869 54.0227C109.864 61.7159 103.607 67.983 95.8985 67.983ZM95.8985 25.9264C82.7803 25.9264 72.5968 34.4462 68.4635 48.484C62.1602 39.0084 57.3655 27.6314 54.5807 18.042H40.4447V54.7873C40.4343 62.0517 34.5495 67.9417 27.2852 67.952C20.026 67.9417 14.1463 62.0465 14.136 54.7873V18.042H0V54.7873C0 69.843 12.245 82.1862 27.2852 82.1862C42.3357 82.1862 54.5807 69.843 54.5807 54.7873V48.639C57.3138 54.3585 60.6877 60.1555 64.7797 65.2808L56.1358 105.958H70.587L76.8542 76.4563C82.3463 79.9645 88.66 82.1862 95.8985 82.1862C111.398 82.1862 124 69.5175 124 54.0279C124 38.5279 111.398 25.9264 95.8985 25.9264Z" fill="white"/>
</svg>
