<?xml version="1.0" standalone="no"?>
<!DOCTYPE svg PUBLIC "-//W3C//DTD SVG 20010904//EN"
 "http://www.w3.org/TR/2001/REC-SVG-20010904/DTD/svg10.dtd">
<svg version="1.0" xmlns="http://www.w3.org/2000/svg"
 width="870.000000pt" height="870.000000pt" viewBox="0 0 870.000000 870.000000"
 preserveAspectRatio="xMidYMid meet">
<metadata>
Created by potrace 1.11, written by Peter Selinger 2001-2013
</metadata>
<g transform="translate(0.000000,870.000000) scale(0.100000,-0.100000)"
fill="#000000" stroke="none">
<path d="M836 7888 c1 -266 9 -547 19 -657 2 -20 6 -72 10 -116 27 -307 57
-528 106 -770 60 -301 163 -650 252 -863 l35 -82 -31 -1 c-18 0 -300 -1 -628
-1 l-597 -1 25 -56 c89 -203 228 -437 372 -626 25 -33 49 -64 53 -70 102 -135
354 -401 498 -527 157 -136 488 -386 597 -450 15 -9 96 -57 178 -108 179 -109
535 -286 734 -365 148 -59 446 -162 539 -185 28 -8 52 -17 52 -21 0 -4 -31
-62 -68 -130 -38 -68 -72 -131 -76 -139 -4 -8 -12 -24 -19 -35 -11 -19 -63
-112 -127 -230 -15 -27 -88 -160 -162 -295 -146 -266 -185 -336 -231 -420 -16
-30 -37 -68 -47 -85 -10 -16 -37 -66 -60 -110 -24 -44 -75 -138 -115 -210 -69
-126 -113 -205 -170 -310 -15 -27 -35 -63 -45 -80 -10 -16 -35 -64 -57 -105
-22 -41 -55 -100 -72 -130 -17 -30 -45 -81 -61 -113 -27 -50 -28 -57 -13 -58
10 -1 27 -3 38 -4 11 -2 43 -6 70 -9 28 -4 82 -11 120 -15 39 -5 174 -7 300
-5 225 4 248 5 350 18 28 3 70 9 95 12 627 80 1274 346 1798 739 265 198 464
413 659 713 71 107 184 318 228 422 10 25 36 83 57 130 22 47 45 99 53 115 7
17 36 77 63 135 27 58 62 134 77 170 111 251 324 640 480 875 299 450 665 778
985 880 30 10 59 21 65 26 12 12 -65 11 -145 -2 -36 -5 -78 -12 -95 -15 -389
-61 -700 -243 -950 -554 -86 -107 -222 -313 -299 -453 -32 -59 -60 -106 -61
-105 -2 2 -5 39 -8 83 -6 87 -21 201 -37 280 -6 28 -12 59 -14 70 -2 11 -9 40
-16 65 -7 25 -13 52 -15 60 -27 131 -173 478 -259 615 -108 172 -172 262 -276
385 -40 48 -224 230 -232 230 -5 0 4 24 18 53 119 235 301 393 539 467 98 30
134 34 265 33 287 -2 544 -144 705 -388 47 -72 99 -183 111 -239 16 -74 34
-186 34 -213 0 -31 2 -33 38 -34 20 0 327 -1 682 -1 571 0 738 3 822 17 13 2
46 6 73 10 134 16 313 69 432 127 80 40 193 121 201 146 3 9 -198 12 -981 12
l-984 0 -32 93 c-97 279 -306 520 -571 656 -82 42 -157 73 -210 87 -8 2 -33 8
-55 14 -86 21 -175 31 -280 31 -147 -1 -166 -4 -335 -45 -40 -10 -143 -53
-209 -87 -191 -100 -346 -247 -461 -439 -27 -44 -50 -86 -52 -92 -2 -6 -184
116 -404 272 -219 156 -466 332 -549 390 -82 58 -166 117 -185 131 -34 25
-215 153 -330 234 -64 45 -575 408 -605 429 -28 20 -989 701 -1050 744 -27 20
-159 113 -293 209 -133 95 -246 173 -250 173 -4 0 -7 -136 -6 -302z m573 -478
c128 -91 260 -185 294 -209 34 -25 271 -193 527 -375 256 -181 510 -361 565
-401 55 -39 217 -154 360 -255 143 -101 276 -195 295 -210 34 -26 246 -176
360 -255 192 -134 565 -400 641 -458 179 -136 353 -322 481 -514 91 -136 239
-450 262 -558 1 -5 10 -35 19 -65 15 -51 49 -219 61 -300 31 -206 27 -556 -9
-749 -8 -42 -16 -87 -19 -101 -36 -214 -203 -605 -340 -795 -11 -16 -25 -37
-31 -46 -115 -183 -346 -432 -532 -572 -91 -69 -308 -213 -388 -259 -376 -213
-836 -374 -1235 -433 -19 -3 -44 -7 -55 -10 -11 -2 -51 -7 -90 -10 -38 -4 -81
-8 -94 -10 -49 -8 -261 -17 -261 -10 0 5 33 69 92 175 14 25 67 122 118 215
51 94 103 188 115 210 33 59 377 684 533 965 266 482 301 546 332 600 17 30
40 74 52 98 12 23 26 42 30 42 12 0 74 -70 141 -159 93 -124 198 -351 233
-506 10 -47 33 -195 39 -254 6 -63 7 -267 2 -328 -5 -59 20 -36 53 48 33 86
75 238 85 304 3 23 8 52 11 65 10 42 13 372 4 425 -15 87 -17 99 -38 160 -39
113 -71 172 -148 276 -127 168 -300 335 -519 500 -80 61 -490 352 -589 419
-253 170 -630 519 -802 740 -300 387 -497 804 -635 1350 -8 32 -57 253 -64
290 -1 8 -6 35 -10 60 -8 47 -8 49 -21 120 -4 25 -8 50 -9 55 -3 27 -19 151
-20 155 -1 3 -5 41 -9 85 -4 44 -9 90 -11 101 -2 12 -6 61 -9 110 -4 49 -9
112 -11 139 -3 28 -8 110 -10 183 -5 113 -4 132 8 125 8 -4 119 -82 246 -173z
m52 -2415 c275 -467 612 -812 1217 -1245 297 -212 546 -391 555 -399 10 -10
-21 -71 -36 -71 -18 0 -169 43 -297 85 -299 97 -741 297 -995 450 -258 155
-504 332 -714 509 -188 160 -488 498 -638 716 l-31 45 443 0 444 0 52 -90z"/>
<path d="M5752 5373 c-102 -50 -122 -173 -42 -253 132 -132 338 36 239 196
-38 62 -132 89 -197 57z"/>
</g>
</svg>
